<?xml version="1.0" encoding="UTF-8" standalone="no"?>
<!DOCTYPE svg PUBLIC "-//W3C//DTD SVG 1.1//EN" "http://www.w3.org/Graphics/SVG/1.1/DTD/svg11.dtd">
<svg width="100%" height="100%" viewBox="0 0 200 81" version="1.1" xmlns="http://www.w3.org/2000/svg" xmlns:xlink="http://www.w3.org/1999/xlink" xml:space="preserve" xmlns:serif="http://www.serif.com/" style="fill-rule:evenodd;clip-rule:evenodd;stroke-linejoin:round;stroke-miterlimit:2;">
    <g transform="matrix(1,0,0,1,0,-104)">
        <g transform="matrix(0.266864,0,0,0.200186,-65.1234,68.187)">
            <rect id="redhat" x="244.033" y="182.694" width="749.446" height="399.629" style="fill:none;"/>
            <clipPath id="_clip1">
                <rect id="redhat1" serif:id="redhat" x="244.033" y="182.694" width="749.446" height="399.629"/>
            </clipPath>
            <g clip-path="url(#_clip1)">
                <g transform="matrix(1.46377,0,0,1.95133,244.033,264.94)">
                    <path d="M133.472,59.891L133.489,59.891C150.083,67.104 159.287,79.188 159.287,89.832C159.287,103.363 149.731,120.501 111.84,120.501C62.418,120.501 0,88.033 0,61.69C0,45.606 18.217,43.096 32.293,42.393C31.457,44.33 31.028,46.417 31.029,48.527C31.037,63.682 65.305,86.61 104.434,86.585C121.748,86.585 134.919,80.083 134.919,68.368C134.919,67.464 134.919,66.744 133.472,59.891ZM35.33,34.873C35.338,34.841 35.347,34.81 35.355,34.778C36.259,31.899 43.297,12.05 43.297,12.05C45.824,5.013 49.096,1.59 54.117,1.59C59.347,1.59 63.497,6.276 69.087,6.276C74.895,6.276 76.309,0 81.179,0C86.409,0 104.091,6.854 112.208,11.004C122.669,16.234 123.932,18.937 125.371,24.895L131.606,51.975C131.782,52.786 131.871,53.614 131.871,54.444C131.871,54.564 131.869,54.683 131.865,54.803C131.865,54.814 131.865,54.825 131.865,54.836C131.838,67.259 116.709,69.414 106.25,69.414C65.548,69.414 35.171,44.117 35.171,36.401C35.153,35.865 35.215,35.329 35.355,34.811L35.33,34.873Z" style="fill:gray;fill-rule:nonzero;"/>
                </g>
                <g transform="matrix(1.46377,0,0,1.95133,244.033,266.361)">
                    <path d="M484.716,77.238C484.716,87.188 490.699,92.024 501.611,92.024C504.971,91.941 508.31,91.469 511.561,90.619L511.561,79.079C509.483,79.737 507.314,80.065 505.134,80.05C500.641,80.05 498.975,78.644 498.975,74.418L498.975,56.736L511.996,56.736L511.996,44.853L498.975,44.853L498.975,29.791L484.749,32.87L484.749,44.853L475.302,44.853L475.302,56.736L484.716,56.736L484.716,77.238ZM440.365,77.506C440.365,74.426 443.453,72.928 448.114,72.928C450.963,72.945 453.8,73.299 456.566,73.983L456.566,79.966C453.84,81.455 450.776,82.213 447.67,82.167C443.101,82.167 440.365,80.409 440.365,77.506M444.716,92.2C449.737,92.2 453.787,91.146 457.57,88.593L457.57,91.414L471.645,91.414L471.645,61.573C471.645,50.226 463.996,44 451.235,44C444.105,44 437.059,45.673 429.478,49.104L434.582,59.581C440.038,57.288 444.624,55.882 448.666,55.882C454.524,55.882 457.553,58.167 457.553,62.836L457.553,65.121C454.104,64.228 450.555,63.784 446.992,63.799C435.018,63.799 427.804,68.82 427.804,77.799C427.804,85.983 434.315,92.225 444.7,92.225M367.344,91.439L382.482,91.439L382.482,67.297L407.83,67.297L407.83,91.414L423.009,91.414L423.009,29.807L407.888,29.807L407.888,53.481L382.541,53.481L382.541,29.807L367.403,29.807L367.344,91.439ZM309.721,68.092C309.721,61.397 315.002,56.292 321.956,56.292C325.574,56.219 329.087,57.51 331.797,59.907L331.797,76.184C329.145,78.689 325.602,80.033 321.956,79.916C315.094,79.916 309.721,74.811 309.721,68.125M331.989,91.447L346.073,91.447L346.073,26.728L331.847,29.807L331.847,47.322C328.225,45.269 324.127,44.207 319.964,44.242C306.416,44.242 295.763,54.711 295.763,68.092C295.685,74.434 298.158,80.541 302.627,85.042C307.096,89.543 313.186,92.059 319.529,92.025C324.018,92.046 328.396,90.629 332.023,87.983L331.989,91.447ZM267.362,55.648C271.847,55.648 275.63,58.552 277.128,63.037L257.714,63.037C259.119,58.41 262.642,55.648 267.362,55.648M243.371,68.2C243.371,81.757 254.458,92.317 268.709,92.317C276.542,92.317 282.266,90.2 288.165,85.271L278.743,76.903C276.542,79.196 273.287,80.426 269.421,80.426C264.444,80.566 259.895,77.63 257.973,73.037L291.153,73.037L291.153,69.497C291.153,54.711 281.211,44.067 267.655,44.067C261.217,43.969 255.012,46.473 250.444,51.011C245.877,55.549 243.332,61.737 243.387,68.175M218.827,42.744C223.848,42.744 226.659,45.908 226.659,49.698C226.659,53.489 223.848,56.652 218.827,56.652L203.856,56.652L203.856,42.744L218.827,42.744ZM188.701,91.414L203.839,91.414L203.839,68.97L215.362,68.97L226.986,91.414L243.931,91.414L230.375,66.769C237.423,63.903 242.021,57.039 241.99,49.431C241.99,38.343 233.279,29.807 220.233,29.807L188.701,29.807L188.701,91.414Z" style="fill:gray;fill-rule:nonzero;"/>
                </g>
            </g>
        </g>
    </g>
</svg>
