<?xml version="1.0" encoding="UTF-8" standalone="no"?>
<!DOCTYPE svg PUBLIC "-//W3C//DTD SVG 1.1//EN" "http://www.w3.org/Graphics/SVG/1.1/DTD/svg11.dtd">
<svg width="100%" height="100%" viewBox="0 0 201 81" version="1.1" xmlns="http://www.w3.org/2000/svg" xmlns:xlink="http://www.w3.org/1999/xlink" xml:space="preserve" xmlns:serif="http://www.serif.com/" style="fill-rule:evenodd;clip-rule:evenodd;stroke-linejoin:round;stroke-miterlimit:2;">
    <g transform="matrix(1,0,0,1,-230,-104)">
        <g transform="matrix(0.266864,0,0,0.200186,165.539,68.187)">
            <rect id="sap" x="244.033" y="182.694" width="749.446" height="399.629" style="fill:none;"/>
            <clipPath id="_clip1">
                <rect id="sap1" serif:id="sap" x="244.033" y="182.694" width="749.446" height="399.629"/>
            </clipPath>
            <g clip-path="url(#_clip1)">
                <g transform="matrix(1.18358,0,0,1.57781,244.033,182.694)">
                    <path d="M0,253.281L0,0L512,0L258.764,253.281L0,253.281ZM303.848,50.656L253.281,50.656L253.45,169.586L209.419,50.611L165.759,50.611L128.172,149.971C124.176,124.688 98.037,115.964 77.47,109.429C63.889,105.067 49.474,98.65 49.621,91.558C49.733,85.739 57.332,80.341 72.433,81.146C82.564,81.692 91.514,82.508 109.316,91.108L126.821,60.602C110.588,52.339 88.142,47.122 69.737,47.105L69.624,47.105C48.163,47.105 30.293,54.056 19.216,65.51C11.493,73.502 7.328,83.667 7.16,94.907C6.878,110.374 12.546,121.339 24.456,130.102C34.52,137.476 47.392,142.26 58.733,145.772C72.72,150.106 84.146,153.877 84.005,161.903C83.893,164.83 82.789,167.565 80.684,169.772C77.195,173.374 71.848,174.725 64.446,174.871C50.167,175.175 39.585,172.929 22.722,162.961L7.148,193.862C23.994,203.441 41.876,208.248 62.195,208.248L66.765,208.214C84.45,207.893 98.802,203.655 110.206,194.481C110.859,193.957 111.444,193.428 112.052,192.893L110.138,202.755L152.802,202.62L160.457,183.021C168.505,185.768 177.657,187.288 187.372,187.288C196.839,187.288 205.743,185.847 213.64,183.258L218.976,202.62L295.523,202.693L295.709,158.014L311.998,158.014C351.369,158.014 374.643,137.976 374.643,104.374C374.63,66.951 352.005,50.651 303.848,50.651L303.848,50.656ZM295.698,123.359L295.698,82.739L306.814,82.739C321.617,82.739 333.437,87.669 333.437,102.787C333.424,118.434 321.617,123.359 306.814,123.359L295.698,123.359ZM187.366,152.318C181.487,152.317 175.973,151.293 171.23,149.492L187.192,99.089L187.501,99.089L203.205,149.633C198.479,151.321 193.094,152.317 187.372,152.318L187.366,152.318Z" style="fill:gray;fill-rule:nonzero;"/>
                </g>
            </g>
        </g>
    </g>
</svg>
