<?xml version="1.0" encoding="UTF-8" standalone="no"?>
<!DOCTYPE svg PUBLIC "-//W3C//DTD SVG 1.1//EN" "http://www.w3.org/Graphics/SVG/1.1/DTD/svg11.dtd">
<svg width="100%" height="100%" viewBox="0 0 201 81" version="1.1" xmlns="http://www.w3.org/2000/svg" xmlns:xlink="http://www.w3.org/1999/xlink" xml:space="preserve" xmlns:serif="http://www.serif.com/" style="fill-rule:evenodd;clip-rule:evenodd;stroke-linejoin:round;stroke-miterlimit:2;">
    <g transform="matrix(1,0,0,1,-454,-104)">
        <g transform="matrix(0.266864,0,0,0.200186,389.141,68.187)">
            <rect id="vault" x="244.033" y="182.694" width="749.446" height="399.629" style="fill:none;"/>
            <clipPath id="_clip1">
                <rect id="vault1" serif:id="vault" x="244.033" y="182.694" width="749.446" height="399.629"/>
            </clipPath>
            <g clip-path="url(#_clip1)">
                <g transform="matrix(1.46376,0,0,1.95131,244.033,235.899)">
                    <path d="M283.432,27.369L302.977,27.369L273.19,126.848L245.426,126.848L215.812,27.443L235.358,27.443L259.395,110.289L283.432,27.369ZM357.223,126.848L342.416,126.848L341.059,121.912C334.615,126.096 327.098,128.325 319.415,128.329C306.138,128.329 300.462,119.222 300.462,106.686C300.462,91.879 306.879,86.227 321.661,86.227L339.134,86.227L339.134,78.577C339.134,70.507 336.888,67.669 325.24,67.669C318.468,67.737 311.722,68.489 305.102,69.915L302.856,56.02C310.977,53.782 319.358,52.629 327.781,52.59C350.609,52.59 357.396,60.66 357.396,78.873L357.223,126.848ZM339.035,99.381L325.585,99.381C319.613,99.381 317.984,101.034 317.984,106.562C317.984,111.498 319.613,113.966 325.388,113.966C330.209,113.889 334.934,112.608 339.134,110.239L339.035,99.381ZM385.905,54.096L385.905,104.835C385.905,108.709 387.533,110.659 391.729,110.659C395.924,110.659 404.068,107.969 410.682,104.539L410.682,54.096L428.895,54.096L428.895,126.848L415.001,126.848L413.224,120.728C404.156,125.275 394.236,127.873 384.103,128.354C372.011,128.354 367.692,119.839 367.692,106.858L367.692,54.096L385.905,54.096ZM438.586,126.848L438.586,24.382L456.799,21.915L456.799,126.848L438.586,126.848ZM511.112,125.441C505.975,127.235 500.584,128.193 495.145,128.279C481.867,128.279 475.13,122.011 475.13,109.03L475.13,68.557L464.247,68.557L464.247,54.096L475.13,54.096L475.13,36.031L493.343,33.563L493.343,54.17L512,54.17L510.815,68.631L493.343,68.631L493.343,106.636C492.983,109.385 494.642,111.997 497.282,112.841C498.131,113.112 499.029,113.186 499.907,113.053C502.997,112.963 506.06,112.457 509.014,111.547L511.112,125.441Z" style="fill:gray;fill-rule:nonzero;"/>
                </g>
                <g transform="matrix(1.90039,0,0,2.53337,244.033,182.694)">
                    <path d="M-0,0L78.601,157.746L157.746,0L-0,0ZM87.93,31.663L97.086,31.663L97.086,40.818L87.93,40.818L87.93,31.663ZM69.717,68.236L60.586,68.236L60.586,59.105L69.717,59.105L69.717,68.236ZM69.717,54.515L60.586,54.515L60.586,45.409L69.717,45.409L69.717,54.515ZM69.717,40.818L60.586,40.818L60.586,31.663L69.717,31.663L69.717,40.818ZM83.537,81.958L74.406,81.958L74.406,72.802L83.537,72.802L83.537,81.958ZM83.537,68.236L74.406,68.236L74.406,59.105L83.537,59.105L83.537,68.236ZM83.537,54.515L74.406,54.515L74.406,45.409L83.537,45.409L83.537,54.515ZM83.537,40.818L74.406,40.818L74.406,31.663L83.537,31.663L83.537,40.818ZM87.93,45.409L97.086,45.409L97.086,54.54L87.93,54.54L87.93,45.409ZM87.93,68.261L87.93,59.13L97.086,59.13L97.086,68.261L87.93,68.261Z" style="fill:gray;fill-rule:nonzero;"/>
                </g>
            </g>
        </g>
    </g>
</svg>
