<?xml version="1.0" encoding="UTF-8" standalone="no"?>
<!DOCTYPE svg PUBLIC "-//W3C//DTD SVG 1.1//EN" "http://www.w3.org/Graphics/SVG/1.1/DTD/svg11.dtd">
<svg width="100%" height="100%" viewBox="0 0 200 80" version="1.1" xmlns="http://www.w3.org/2000/svg" xmlns:xlink="http://www.w3.org/1999/xlink" xml:space="preserve" xmlns:serif="http://www.serif.com/" style="fill-rule:evenodd;clip-rule:evenodd;stroke-linejoin:round;stroke-miterlimit:2;">
    <g transform="matrix(0.266864,0,0,0.200186,-65.1234,-36.5728)">
        <rect id="windows" x="244.033" y="182.694" width="749.446" height="399.629" style="fill:none;"/>
        <clipPath id="_clip1">
            <rect id="windows1" serif:id="windows" x="244.033" y="182.694" width="749.446" height="399.629"/>
        </clipPath>
        <g clip-path="url(#_clip1)">
            <g transform="matrix(1.46376,0,0,1.95131,244.033,276.963)">
                <path d="M212.071,86.332L198.739,86.332L185.701,36.764L172.546,86.332L158.921,86.332L141.008,21.906L153.107,21.906L166.027,73.176L180.122,21.906L192.338,21.906L205.61,73.47L217.885,21.906L229.572,21.906L212.071,86.332ZM246.662,26.604C246.662,28.298 246.065,29.667 244.87,30.814L244.724,30.95C243.491,32.125 241.964,32.712 240.143,32.712C238.323,32.712 236.796,32.125 235.562,30.95C234.329,29.776 233.683,28.366 233.683,26.604C233.683,24.842 234.329,23.374 235.562,22.141C236.854,20.966 238.381,20.379 240.143,20.379C242.022,20.379 243.549,20.966 244.783,22.2C245.967,23.384 246.609,24.784 246.659,26.401L246.662,26.604ZM234.564,86.332L234.564,39.936L245.37,39.936L245.37,86.332L234.564,86.332ZM297.933,86.332L287.068,86.332L287.068,60.491C287.068,53.737 284.953,47.864 278.141,47.864C271.328,47.864 267.041,53.972 267.041,60.139L267.041,86.332L256.47,86.332L256.47,39.936L267.041,39.936L267.041,46.455L267.217,46.455C270.741,40.993 275.792,39.114 282.428,39.114C287.42,39.114 291.237,40.347 293.998,43.518C296.758,46.69 297.933,51.505 297.933,58.024L297.933,86.332ZM340.217,86.332L340.217,80.341L340.041,80.341C336.694,85.979 329.822,87.271 325.065,87.271C310.853,87.271 305.626,76.23 305.626,64.485C305.626,56.674 307.564,50.448 311.44,45.809C315.375,41.11 320.602,39.055 327.121,39.055C337.281,39.055 340.041,44.693 340.041,44.693L340.217,44.693L340.217,17.854L351.2,17.854L351.2,86.332L340.217,86.332ZM340.335,59.845C340.335,54.266 336.752,47.864 329.118,47.864C320.426,47.864 317.02,55.44 317.02,64.191C317.02,71.826 320.191,78.697 328.472,78.814C336.495,78.814 340.144,71.216 340.273,64.853L340.335,59.845ZM406.581,62.899C406.581,78.991 396.95,87.682 382.561,87.682C366.88,87.682 358.835,78.286 358.835,63.897C358.835,47.453 368.466,38.879 383.736,38.879C397.655,38.879 406.581,47.805 406.581,62.899ZM395.305,63.251C395.305,56.086 392.78,48.158 383.09,48.158C373.811,48.158 370.169,55.088 370.169,63.545C370.169,72.765 374.515,78.579 382.972,78.579C392.042,78.579 395.184,71.73 395.303,63.501L395.305,63.251ZM464.723,86.332L452.801,86.332L443.698,52.739L433.89,86.332L422.321,86.332L408.813,40.053L420.148,40.053L428.957,75.995L439.293,40.053L449.923,40.053L459.144,75.937L467.718,40.053L478.113,40.053L464.723,86.332ZM512,73.411C512,83.748 502.603,87.8 493.207,87.8C487.099,87.8 480.991,85.451 480.991,85.451L480.991,74.468L481.205,74.646C482.264,75.497 487.147,79.115 493.677,79.167C498.727,79.167 501.018,77.581 501.018,74.527C501.132,72.124 499.741,70.78 498.04,69.789L497.62,69.551C496.389,68.867 494.597,67.989 492.15,67.01C489.096,65.718 486.805,64.426 485.337,63.192C483.869,61.959 482.753,60.55 482.048,58.905C481.343,57.261 480.815,55.44 480.815,53.267C480.815,44.928 487.804,38.996 498.903,38.996C506.245,38.996 509.416,40.817 509.416,40.817L509.416,51.153L509.181,50.997C508.106,50.3 503.514,47.512 498.786,47.512C494.91,47.512 491.973,48.921 491.915,52.151C491.915,56.262 496.965,58.318 499.961,59.493C504.249,61.208 507.425,63.035 509.215,65.136L509.357,65.307C511.188,67.481 511.96,69.6 511.998,73.13L512,73.411Z" style="fill:gray;fill-rule:nonzero;"/>
            </g>
            <g transform="matrix(1.46376,0,0,1.95131,244.033,276.963)">
                <path d="M0,0L51.27,0L51.27,51.27L0,51.27L0,0ZM56.908,0L108.179,0L108.179,51.27L56.908,51.27L56.908,0ZM0,56.908L51.27,56.908L51.27,108.179L0,108.179L0,56.908ZM56.908,56.908L108.179,56.908L108.179,108.179L56.908,108.179L56.908,56.908Z" style="fill:gray;fill-rule:nonzero;"/>
            </g>
        </g>
    </g>
</svg>
